<svg width="240" height="90" viewBox="0 0 239 85" fill="none" xmlns="http://www.w3.org/2000/svg">
<path d="M37.8455 20C27.9899 20 20 27.8352 20 37.5001C20 47.1655 27.9899 55 37.8455 55C47.7022 55 55.6912 47.1655 55.6912 37.5001C55.6912 27.8358 47.7022 20.0008 37.8453 20.0008L37.8455 20ZM46.0294 45.2402C45.9532 45.3625 45.8532 45.469 45.735 45.5534C45.6169 45.6378 45.4829 45.6986 45.3408 45.7321C45.1987 45.7657 45.0512 45.7715 44.9068 45.7491C44.7624 45.7267 44.6239 45.6766 44.4993 45.6017C40.3094 43.0919 35.0347 42.5235 28.8229 43.9153C28.5353 43.9794 28.2334 43.9289 27.9837 43.7749C27.734 43.6209 27.5569 43.376 27.4913 43.094C27.4586 42.9543 27.4543 42.8098 27.4787 42.6685C27.503 42.5272 27.5556 42.3921 27.6333 42.2707C27.711 42.1494 27.8124 42.0443 27.9315 41.9615C28.0507 41.8786 28.1854 41.8196 28.3279 41.7879C35.1257 40.2649 40.9568 40.9206 45.6607 43.7397C46.1849 44.0553 46.3511 44.7261 46.0294 45.2402ZM48.2136 40.4751C47.8109 41.1171 46.9542 41.3198 46.3 40.9248C41.5031 38.0334 34.1911 37.196 28.5173 38.885C27.7815 39.103 27.0043 38.6963 26.781 37.9759C26.6744 37.6296 26.7123 37.256 26.8862 36.937C27.0601 36.618 27.356 36.3797 27.7088 36.2742C34.1898 34.3458 42.2468 35.2799 47.7554 38.5995C48.4097 38.9945 48.6164 39.8344 48.2136 40.4751ZM48.4011 35.5132C42.6496 32.1631 33.1603 31.855 27.669 33.4894C26.7872 33.7517 25.8547 33.2635 25.5874 32.3988C25.4589 31.9833 25.504 31.5348 25.7126 31.1519C25.9213 30.769 26.2764 30.483 26.7 30.3569C33.0037 28.4803 43.4828 28.8428 50.1046 32.6978C50.2934 32.8073 50.4582 32.9522 50.5897 33.1243C50.7213 33.2963 50.8169 33.4921 50.8711 33.7005C50.9254 33.9088 50.9372 34.1256 50.9058 34.3385C50.8745 34.5513 50.8007 34.756 50.6885 34.9408C50.2197 35.7186 49.1926 35.975 48.402 35.5132H48.4011ZM68.5517 36.1551C65.4703 35.4346 64.9227 34.9289 64.9227 33.8662C64.9227 32.8623 65.8859 32.1867 67.32 32.1867C68.7094 32.1867 70.086 32.6997 71.5309 33.7559C71.5735 33.7878 71.6289 33.8006 71.6822 33.7922C71.709 33.7885 71.7347 33.7794 71.7578 33.7655C71.7809 33.7516 71.8008 33.7333 71.8164 33.7116L73.3209 31.6318C73.3506 31.5906 73.3632 31.5398 73.356 31.4898C73.3489 31.4398 73.3226 31.3943 73.2825 31.3627C71.5628 30.01 69.6279 29.3523 67.3648 29.3523C64.0383 29.3523 61.7134 31.3102 61.7134 34.1116C61.7134 37.1156 63.7187 38.1793 67.1836 39.0003C70.1308 39.6664 70.6295 40.2243 70.6295 41.2216C70.6295 42.327 69.6236 43.0146 68.0041 43.0146C66.2055 43.0146 64.7373 42.419 63.0964 41.0272C63.0555 40.9933 63.0029 40.9761 62.9494 40.9791C62.894 40.9833 62.845 41.0084 62.8109 41.0481L61.1231 43.0167C61.0528 43.1003 61.0613 43.2215 61.1423 43.2925C63.0517 44.9643 65.4 45.8462 67.9359 45.8462C71.5202 45.8462 73.8366 43.9257 73.8366 40.952C73.843 38.4428 72.3108 37.0531 68.5581 36.1578L68.5517 36.1551ZM81.9471 33.1751C80.3936 33.1751 79.1193 33.7753 78.0666 35.0051V33.6209C78.0668 33.5685 78.0458 33.5182 78.0083 33.4811C77.9707 33.4439 77.9196 33.4228 77.8663 33.4226H75.1067C74.9958 33.4226 74.9063 33.5116 74.9063 33.6209V49.0017C74.9063 49.1104 74.9958 49.2003 75.1067 49.2003H77.8663C77.9771 49.2003 78.0666 49.1104 78.0666 49.0017V44.1472C79.1193 45.3029 80.3936 45.8692 81.9471 45.8692C84.8346 45.8692 87.7583 43.6896 87.7583 39.5228C87.7626 35.3552 84.8389 33.1749 81.9492 33.1749L81.9471 33.1751ZM84.5491 39.5228C84.5491 41.6437 83.2172 43.1253 81.3078 43.1253C79.4219 43.1253 77.9984 41.5768 77.9984 39.5228C77.9984 37.4685 79.4219 35.9204 81.3078 35.9204C83.1852 35.9202 84.5491 37.4351 84.5491 39.5228ZM95.2487 33.1751C91.5302 33.1751 88.6171 35.9829 88.6171 39.5681C88.6171 43.1149 91.511 45.8922 95.204 45.8922C98.9353 45.8922 101.857 43.094 101.857 39.5228C101.857 35.9637 98.9545 33.1755 95.2487 33.1755V33.1751ZM95.2487 43.1462C93.2712 43.1462 91.7795 41.5873 91.7795 39.5217C91.7795 37.4468 93.22 35.9411 95.204 35.9411C97.1943 35.9411 98.6945 37.4995 98.6945 39.5671C98.6945 41.6416 97.2455 43.1462 95.2487 43.1462ZM109.797 33.4226H106.76V30.3786C106.76 30.3527 106.755 30.327 106.745 30.303C106.735 30.2791 106.721 30.2573 106.702 30.2389C106.683 30.2205 106.661 30.2058 106.637 30.1958C106.613 30.1858 106.586 30.1806 106.56 30.1805H103.8C103.69 30.1805 103.598 30.2695 103.598 30.3786V33.4226H102.272C102.162 33.4226 102.072 33.5116 102.072 33.6209V35.9462C102.072 36.0552 102.162 36.1445 102.272 36.1445H103.598V42.1619C103.598 44.5923 104.832 45.8253 107.267 45.8253C108.256 45.8253 109.077 45.6247 109.85 45.1942C109.914 45.1608 109.953 45.0939 109.953 45.0228V42.8077C109.953 42.7408 109.916 42.676 109.857 42.6405C109.828 42.6223 109.794 42.6119 109.76 42.6105C109.725 42.609 109.691 42.6165 109.661 42.6321C109.13 42.8934 108.616 43.0146 108.041 43.0146C107.157 43.0146 106.76 42.6196 106.76 41.7377V36.1455H109.797C109.908 36.1455 109.997 36.0565 109.997 35.9472V33.6221C109.998 33.5962 109.994 33.5703 109.984 33.5461C109.975 33.5219 109.96 33.4999 109.941 33.4814C109.923 33.4628 109.901 33.4482 109.876 33.4383C109.852 33.4284 109.826 33.4235 109.799 33.4238L109.797 33.4226ZM120.375 33.4345V33.0606C120.375 31.9608 120.806 31.4703 121.769 31.4703C122.344 31.4703 122.807 31.5823 123.324 31.7516C123.388 31.7712 123.454 31.7614 123.506 31.724C123.532 31.7056 123.553 31.6814 123.567 31.6534C123.582 31.6255 123.589 31.5945 123.589 31.5631V29.2832C123.589 29.2406 123.576 29.199 123.55 29.1647C123.524 29.1304 123.488 29.1053 123.446 29.0932C122.9 28.9337 122.201 28.7701 121.153 28.7701C118.606 28.7701 117.258 30.1774 117.258 32.8383V33.4109H115.932C115.821 33.4109 115.73 33.4999 115.73 33.609V35.9462C115.73 36.0552 115.821 36.1445 115.932 36.1445H117.258V45.4241C117.258 45.5348 117.349 45.6226 117.46 45.6226H120.217C120.33 45.6226 120.42 45.5348 120.42 45.4241V36.1451H122.996L126.943 45.4241C126.495 46.3979 126.054 46.5922 125.453 46.5922C124.967 46.5922 124.454 46.4501 123.932 46.168C123.882 46.1435 123.825 46.1383 123.772 46.1534C123.719 46.1722 123.674 46.2098 123.653 46.26L122.717 48.2724C122.672 48.3685 122.711 48.4793 122.805 48.5295C123.78 49.0477 124.661 49.2692 125.75 49.2692C127.787 49.2692 128.914 48.3372 129.905 45.8337L134.691 33.7053C134.704 33.6753 134.708 33.6427 134.704 33.6106C134.701 33.5784 134.689 33.5477 134.67 33.5212C134.652 33.4947 134.627 33.473 134.599 33.4579C134.57 33.4429 134.538 33.4351 134.506 33.4351H131.633C131.546 33.4351 131.469 33.4888 131.441 33.568L128.498 41.8088L125.276 33.5626C125.262 33.5252 125.236 33.493 125.203 33.4702C125.169 33.4475 125.13 33.4352 125.089 33.4351H120.375V33.4345ZM114.242 33.4226H111.483C111.372 33.4226 111.28 33.5116 111.28 33.6209V45.4241C111.28 45.5348 111.372 45.6226 111.483 45.6226H114.242C114.353 45.6226 114.445 45.5348 114.445 45.4241V33.6217C114.445 33.5956 114.44 33.5698 114.429 33.5457C114.419 33.5216 114.404 33.4997 114.385 33.4813C114.367 33.4629 114.344 33.4482 114.32 33.4383C114.295 33.4284 114.269 33.4233 114.242 33.4234V33.4226ZM112.878 28.0479C111.785 28.0479 110.899 28.9156 110.899 29.9874C110.899 30.2423 110.95 30.4948 111.049 30.7303C111.149 30.9658 111.295 31.1798 111.479 31.3601C111.662 31.5404 111.881 31.6833 112.121 31.7809C112.361 31.8784 112.618 31.9286 112.878 31.9286C113.972 31.9286 114.856 31.0599 114.856 29.9874C114.856 28.9158 113.969 28.0479 112.878 28.0479ZM137.048 37.2178C135.957 37.2178 135.107 36.3578 135.107 35.3136C135.107 34.2693 135.968 33.3996 137.059 33.3996C138.15 33.3996 139 34.2593 139 35.3027C139 36.347 138.139 37.2178 137.048 37.2178ZM137.059 33.5889C136.063 33.5889 135.311 34.3642 135.311 35.3136C135.311 36.2625 136.059 37.0274 137.048 37.0274C138.043 37.0274 138.795 36.2527 138.795 35.3027C138.795 34.3538 138.047 33.5889 137.059 33.5889ZM137.489 35.4985L138.039 36.2525H137.574L137.08 35.5608H136.656V36.2525H136.268V34.2539H137.176C137.651 34.2539 137.962 34.4915 137.962 34.8915C137.964 35.2191 137.77 35.4193 137.491 35.4985H137.489ZM137.161 34.5968H136.656V35.2289H137.161C137.412 35.2289 137.564 35.1079 137.564 34.9126C137.564 34.7069 137.412 34.5968 137.161 34.5968Z" fill="white"/>
</svg>
